<?xml version="1.0" standalone="no"?>
<!DOCTYPE svg PUBLIC "-//W3C//DTD SVG 20010904//EN"
 "http://www.w3.org/TR/2001/REC-SVG-20010904/DTD/svg10.dtd">
<svg version="1.0" xmlns="http://www.w3.org/2000/svg"
 width="260.000000pt" height="260.000000pt" viewBox="0 0 260.000000 260.000000"
 preserveAspectRatio="xMidYMid meet">
<metadata>
Created by potrace 1.11, written by Peter Selinger 2001-2013
</metadata>
<g transform="translate(0.000000,260.000000) scale(0.100000,-0.100000)"
fill="#000000" stroke="none">
<path d="M689 2496 c-2 -2 -22 -6 -44 -9 -120 -17 -258 -95 -344 -194 -53 -61
-113 -186 -137 -283 -19 -80 -25 -291 -11 -382 42 -270 194 -446 437 -507 111
-28 350 -21 464 13 25 8 46 11 47 8 0 -4 1 -176 1 -382 1 -356 0 -377 -19
-420 -23 -52 -45 -74 -93 -93 -35 -15 -118 -16 -178 -2 l-32 7 0 -70 c0 -79
-2 -78 101 -88 150 -15 279 47 339 165 40 80 42 112 42 821 0 377 4 676 8 665
4 -11 60 -155 123 -320 63 -165 150 -390 192 -500 41 -110 86 -227 99 -260
l24 -60 64 -3 65 -3 223 578 c122 318 229 589 236 603 11 22 12 12 7 -70 -3
-52 -6 -322 -6 -600 l-1 -505 79 -3 80 -3 0 678 0 678 -60 5 c-33 3 -87 3
-120 0 l-60 -5 -103 -265 c-56 -146 -105 -272 -109 -280 -3 -8 -53 -140 -112
-292 -58 -152 -110 -273 -114 -269 -6 6 -203 514 -389 1003 l-41 107 -92 3
c-51 2 -106 1 -121 -2 l-29 -5 -1 -327 c-1 -179 -5 -331 -8 -336 -6 -10 -13
-12 -145 -35 -325 -57 -542 62 -617 338 -41 153 -19 402 47 526 118 220 390
296 667 187 29 -11 54 -19 56 -17 9 10 67 131 64 134 -7 7 -161 56 -192 62
-39 6 -281 14 -287 9z"/>
</g>
</svg>
